<svg width="16" height="18" viewBox="0 0 16 18" fill="none" xmlns="http://www.w3.org/2000/svg">
<g clip-path="url(#clip0_2030_578)">
<path d="M15.6783 13.0257C15.6021 12.8119 15.5131 12.6051 15.4285 12.4135C15.2981 12.1187 15.1616 11.8233 15.0296 11.5379L15.0191 11.5152C13.8415 8.96499 12.5775 6.37991 11.2623 3.83183L11.2065 3.72364C11.0723 3.46344 10.9337 3.19439 10.7913 2.93004C10.6225 2.59549 10.4177 2.28028 10.1805 1.99002C9.91354 1.67149 9.57976 1.41531 9.20278 1.23955C8.82581 1.06379 8.41475 0.972778 7.99866 0.972778C7.58257 0.972778 7.17157 1.064 6.7946 1.23985C6.41767 1.41571 6.08395 1.67197 5.81705 1.99056C5.58013 2.2809 5.37544 2.59603 5.20661 2.93042C5.06304 3.19715 4.92306 3.46868 4.78769 3.73128L4.73585 3.8318C3.42065 6.38007 2.15667 8.96515 0.979044 11.5151L0.961886 11.5522C0.832133 11.8331 0.69798 12.1235 0.569811 12.4134C0.485115 12.6048 0.396228 12.8115 0.319987 13.0258C0.101619 13.6097 0.0320344 14.2385 0.117489 14.8559C0.208112 15.4797 0.460446 16.0692 0.849498 16.5658C1.23855 17.0624 1.75083 17.449 2.33558 17.6872C2.77726 17.8659 3.24952 17.9572 3.72611 17.9561C3.87582 17.9561 4.0254 17.9474 4.1741 17.9301C4.77687 17.8533 5.35821 17.6571 5.88402 17.3532C6.57376 16.9657 7.25495 16.3978 7.99909 15.5863C8.74322 16.3978 9.42442 16.9657 10.1142 17.3532C10.6399 17.6572 11.2213 17.8533 11.8241 17.9301C11.9728 17.9474 12.1224 17.9561 12.2721 17.9561C12.7486 17.9572 13.2208 17.8659 13.6625 17.6872C14.2473 17.449 14.7596 17.0624 15.1487 16.5658C15.5377 16.0692 15.7901 15.4798 15.8807 14.8559C15.9661 14.2385 15.8965 13.6096 15.6783 13.0257ZM7.99909 13.9104C7.0779 12.7427 6.48677 11.6584 6.27936 10.7494C6.19439 10.4087 6.17433 10.0552 6.22024 9.70716C6.25649 9.45204 6.35022 9.20843 6.49436 8.99465C6.67173 8.76464 6.89968 8.57835 7.16059 8.45018C7.42149 8.32206 7.70841 8.2554 7.99919 8.2554C8.29003 8.2554 8.57689 8.32211 8.8378 8.45034C9.09871 8.57851 9.3266 8.7648 9.50397 8.99481C9.64812 9.2087 9.74185 9.4523 9.77809 9.70748C9.8239 10.0557 9.80378 10.4093 9.71865 10.75C9.51103 11.659 8.92006 12.743 7.99909 13.9104ZM14.8048 14.7022C14.7414 15.1384 14.565 15.5505 14.293 15.8978C14.0209 16.245 13.6627 16.5153 13.2538 16.6819C12.8404 16.8475 12.3917 16.9062 11.9495 16.8525C11.4899 16.7933 11.0469 16.642 10.6472 16.4077C10.0333 16.0628 9.41178 15.5332 8.71244 14.7565C9.82575 13.3837 10.521 12.1184 10.7784 10.9914C10.8942 10.5174 10.9193 10.0259 10.8524 9.54274C10.7917 9.12649 10.6371 8.7294 10.4004 8.3814C10.1231 8.00596 9.76138 7.70074 9.34433 7.49041C8.92723 7.28008 8.4665 7.17048 7.99919 7.17048C7.53194 7.17048 7.07116 7.28003 6.65406 7.4903C6.23696 7.70058 5.87521 8.00575 5.59791 8.38118C5.36124 8.72908 5.20671 9.12606 5.14594 9.54221C5.07898 10.0252 5.10396 10.5165 5.21955 10.9903C5.47679 12.1177 6.17205 13.3834 7.28573 14.7566C6.58639 15.5332 5.96491 16.0628 5.35095 16.4077C4.95131 16.642 4.50836 16.7933 4.04868 16.8525C3.60642 16.9062 3.15774 16.8475 2.74428 16.6819C2.33541 16.5153 1.97723 16.245 1.7052 15.8978C1.43319 15.5505 1.25678 15.1384 1.19344 14.7022C1.13252 14.2588 1.18436 13.8072 1.3442 13.389C1.40496 13.2182 1.47606 13.0506 1.56415 12.8515C1.68876 12.5698 1.821 12.2834 1.94892 12.0065L1.9661 11.9693C3.13714 9.43362 4.39411 6.86293 5.70214 4.32855L5.75421 4.22765C5.88737 3.96928 6.02509 3.70215 6.16404 3.44402C6.29693 3.17797 6.4578 2.92677 6.64392 2.69468C6.80882 2.49546 7.0158 2.33506 7.25002 2.22495C7.48428 2.11483 7.73999 2.05771 7.99888 2.05771C8.25777 2.05771 8.51352 2.11476 8.74774 2.22483C8.982 2.3349 9.18898 2.49527 9.35394 2.69446C9.54017 2.92638 9.70109 3.17749 9.83387 3.44353C9.97155 3.69936 10.108 3.96409 10.2401 4.22009L10.296 4.32866C11.604 6.86277 12.8609 9.43341 14.0321 11.9696L14.0427 11.9924C14.1728 12.2739 14.3073 12.5649 14.434 12.8516C14.5222 13.051 14.5935 13.2187 14.6541 13.3889C14.8138 13.8071 14.8657 14.2587 14.8048 14.7022Z" fill="#FF385C"/>
</g>
<defs>
<clipPath id="clip0_2030_578">
<rect width="15.8341" height="17.0093" fill="white" transform="translate(0.0820312 0.972656)"/>
</clipPath>
</defs>
</svg>
