<svg width="70" height="69" viewBox="0 0 70 69" fill="none" xmlns="http://www.w3.org/2000/svg">
<g filter="url(#filter0_d_9_1130)">
<path d="M55.0001 34C50.4001 42.7342 43.7343 49.4 35.0001 54C26.2685 49.4 19.6014 42.7329 15.0001 34C19.6001 25.2658 26.2659 18.6 35.0001 14C43.7343 18.6 50.4001 25.2658 55.0001 34Z" fill="url(#paint0_linear_9_1130)"/>
</g>
<mask id="mask0_9_1130" style="mask-type:alpha" maskUnits="userSpaceOnUse" x="15" y="14" width="40" height="40">
<path d="M55.0001 33.9999C50.4001 42.7341 43.7343 49.3999 35.0001 53.9999C26.2685 49.3999 19.6014 42.7328 15.0001 33.9999C19.6001 25.2657 26.2659 18.5999 35.0001 13.9999C43.7343 18.5999 50.4001 25.2657 55.0001 33.9999Z" fill="white"/>
</mask>
<g mask="url(#mask0_9_1130)">
<path d="M23.5746 8.17682L16.9728 14.7786L30.6235 28.4293C33.09 30.8958 37.089 30.8958 39.5555 28.4293L53.2062 14.7786L46.6045 8.17682H61.0013V22.5736L54.3933 15.9656L40.7425 29.6164C38.276 32.0829 38.276 36.0818 40.7425 38.5483L54.3933 52.1991L61.0013 45.5911V60.0009H46.5915L53.2062 53.3861L39.5555 39.7354C37.089 37.2689 33.09 37.2689 30.6236 39.7354L16.9728 53.3861L23.5876 60.0009H9.17719V45.5905L15.7857 52.1991L29.4365 38.5483C31.903 36.0818 31.903 32.0829 29.4365 29.6164L15.7857 15.9657L9.17719 22.5742V8.17682H23.5746Z" fill="#040102" fill-opacity="0.7"/>
</g>
<defs>
<filter id="filter0_d_9_1130" x="0.9476" y="0.616704" width="68.1049" height="68.1049" filterUnits="userSpaceOnUse" color-interpolation-filters="sRGB">
<feFlood flood-opacity="0" result="BackgroundImageFix"/>
<feColorMatrix in="SourceAlpha" type="matrix" values="0 0 0 0 0 0 0 0 0 0 0 0 0 0 0 0 0 0 127 0" result="hardAlpha"/>
<feOffset dy="0.669165"/>
<feGaussianBlur stdDeviation="7.02623"/>
<feComposite in2="hardAlpha" operator="out"/>
<feColorMatrix type="matrix" values="0 0 0 0 0.741176 0 0 0 0 0.00392157 0 0 0 0 0.278431 0 0 0 0.6 0"/>
<feBlend mode="normal" in2="BackgroundImageFix" result="effect1_dropShadow_9_1130"/>
<feBlend mode="normal" in="SourceGraphic" in2="effect1_dropShadow_9_1130" result="shape"/>
</filter>
<linearGradient id="paint0_linear_9_1130" x1="32.5427" y1="31.6613" x2="46.5509" y2="45.5498" gradientUnits="userSpaceOnUse">
<stop stop-color="#BD0147"/>
<stop offset="1" stop-color="#BD5001"/>
</linearGradient>
</defs>
</svg>
