<svg width="20" height="20" viewBox="0 0 20 20" fill="none" xmlns="http://www.w3.org/2000/svg">
<path fill-rule="evenodd" clip-rule="evenodd" d="M3.93254 4.52253C2.39295 6.1195 1.08215 7.94528 0 10C1.09188 12.0723 2.41642 13.912 3.97354 15.5189L6.36314 13.1293C8.06864 11.4238 8.06864 8.65863 6.36314 6.95313L3.93254 4.52253ZM4.56864 16.1109C6.15484 17.6317 7.96532 18.9281 10 20C12.0547 18.9179 13.8805 17.607 15.4775 16.0675L13.1328 13.7228C11.4273 12.0173 8.66218 12.0173 6.95668 13.7228L4.56864 16.1109ZM16.0709 15.4739C17.609 13.8777 18.9187 12.0532 20 10C18.9281 7.96483 17.632 6.15426 16.1113 4.56817L13.7264 6.95313C12.0209 8.65863 12.0209 11.4238 13.7264 13.1293L16.0709 15.4739ZM15.5194 3.97305L13.1328 6.3596C11.4273 8.06509 8.66218 8.06509 6.95668 6.3596L4.52614 3.92906C6.12226 2.39098 7.94683 1.08133 10 0C12.0727 1.09163 13.9125 2.41593 15.5194 3.97305Z" fill="#7F8EA3"/>
</svg>
